<svg xmlns="http://www.w3.org/2000/svg" xmlns:xlink="http://www.w3.org/1999/xlink" width="673" zoomAndPan="magnify" viewBox="0 0 504.75 188.249992" height="251" preserveAspectRatio="xMidYMid meet" version="1.0"><defs><clipPath id="bc122a0939"><path d="M 5.164062 173.507812 L 125.144531 173.507812 L 125.144531 187.34375 L 5.164062 187.34375 Z M 5.164062 173.507812 " clip-rule="nonzero"/></clipPath><clipPath id="8218ea8304"><path d="M 83 5.949219 L 122 5.949219 L 122 45.976562 L 83 45.976562 Z M 83 5.949219 " clip-rule="nonzero"/></clipPath><clipPath id="e76fc32c5e"><path d="M 121.972656 25.390625 C 121.785156 14.472656 112.78125 5.765625 101.855469 5.957031 C 96.40625 6.054688 91.515625 8.347656 88 11.972656 L 98.097656 16.015625 C 99.304688 15.507812 100.621094 15.210938 102.015625 15.1875 C 107.839844 15.089844 112.640625 19.730469 112.742188 25.546875 C 112.839844 31.363281 108.199219 36.175781 102.382812 36.273438 C 98.199219 36.34375 94.554688 33.972656 92.789062 30.476562 L 83 30.476562 C 85.160156 39.242188 93.140625 45.667969 102.542969 45.507812 C 113.457031 45.320312 122.164062 36.304688 121.972656 25.390625 " clip-rule="nonzero"/></clipPath><clipPath id="6bbc9226df"><path d="M 51.183594 139.015625 L 78.769531 139.015625 L 78.769531 160 L 51.183594 160 Z M 51.183594 139.015625 " clip-rule="nonzero"/></clipPath><clipPath id="ffd5d77e1a"><path d="M 65.242188 159.664062 L 78.757812 146.148438 L 71.835938 139.226562 L 51.40625 159.664062 Z M 65.242188 159.664062 " clip-rule="nonzero"/></clipPath><clipPath id="94cbb5ee04"><path d="M 5.746094 4.867188 L 134.484375 4.867188 L 134.484375 160 L 5.746094 160 Z M 5.746094 4.867188 " clip-rule="nonzero"/></clipPath><clipPath id="5db43cf91a"><path d="M 60.570312 67.390625 L 88.230469 95.042969 L 88.230469 104.273438 L 63.367188 79.421875 C 61.824219 77.878906 60.570312 74.851562 60.570312 72.671875 Z M 54.53125 4.980469 C 51.296875 5.011719 47.890625 6.234375 45.769531 8.355469 L 19.375 34.722656 C 1.355469 52.75 1.355469 81.964844 19.375 99.992188 L 53.648438 134.265625 L 28.238281 159.664062 L 42.074219 159.664062 L 67.183594 134.5625 L 57.960938 125.339844 L 62.570312 120.730469 L 88.539062 146.695312 C 90.597656 148.757812 94.625 150.421875 97.542969 150.429688 L 134.375 150.441406 L 97.460938 113.507812 L 97.472656 91.105469 C 97.472656 88.1875 95.808594 84.164062 93.746094 82.101562 L 59.222656 47.589844 C 57.421875 45.789062 57.421875 42.867188 59.222656 41.066406 L 69.773438 30.507812 L 69.773438 30.476562 L 102.0625 30.476562 C 101.546875 26.074219 98.21875 21.503906 94.183594 19.878906 L 58.714844 5.707031 C 57.519531 5.230469 56.175781 4.988281 54.792969 4.980469 Z M 54.53125 4.980469 " clip-rule="nonzero"/></clipPath><clipPath id="97fe2b3658"><path d="M 160.21875 57.253906 L 503.550781 57.253906 L 503.550781 105.203125 L 160.21875 105.203125 Z M 160.21875 57.253906 " clip-rule="nonzero"/></clipPath><clipPath id="24b0e08870"><path d="M 276.464844 68.019531 C 280.230469 68.019531 282.738281 69.804688 282.738281 73.5 C 282.738281 77.0625 280.359375 78.976562 276.464844 78.976562 L 268.605469 78.976562 L 268.605469 68.019531 Z M 226.992188 67.890625 C 234.390625 67.890625 238.546875 73.636719 238.546875 81.226562 C 238.546875 88.816406 234.324219 94.566406 226.992188 94.566406 C 219.730469 94.566406 215.496094 88.816406 215.496094 81.226562 C 215.496094 73.636719 219.660156 67.890625 226.992188 67.890625 Z M 255.785156 58.109375 L 255.785156 104.34375 L 268.59375 104.34375 L 268.59375 87.960938 L 276.394531 87.960938 L 282.46875 104.34375 L 296.007812 104.34375 L 287.75 85.847656 C 293.167969 83.269531 295.546875 78.589844 295.546875 73.300781 C 295.546875 65.511719 290.796875 58.109375 276.59375 58.109375 Z M 296.074219 58.109375 L 312.191406 104.34375 L 326.253906 104.34375 L 342.371094 58.109375 L 328.636719 58.109375 L 319.253906 89.285156 L 319.125 89.285156 L 309.8125 58.109375 Z M 345.417969 58.109375 L 345.417969 104.34375 L 358.226562 104.34375 L 358.226562 58.109375 Z M 368.667969 58.109375 L 368.667969 104.34375 L 380.6875 104.34375 L 380.6875 78.191406 L 398.058594 104.34375 L 410.082031 104.34375 L 410.082031 58.109375 L 398.050781 58.109375 L 398.050781 84.394531 L 380.75 58.109375 Z M 184.789062 57.253906 C 170.457031 57.253906 160.21875 67.621094 160.21875 81.15625 C 160.21875 94.902344 170.058594 105.203125 184.320312 105.203125 C 191.910156 105.203125 197.796875 102.621094 202.949219 97.871094 L 195.546875 90.074219 C 192.835938 92.710938 189.53125 94.496094 185.050781 94.496094 C 177.589844 94.496094 173.027344 89.34375 173.027344 81.15625 C 173.027344 73.101562 177.71875 67.949219 185.050781 67.949219 C 189.738281 67.949219 192.707031 69.863281 195.488281 72.175781 L 202.488281 63.65625 C 197.46875 59.5625 191.722656 57.253906 184.789062 57.253906 Z M 226.992188 57.253906 C 212.128906 57.253906 202.558594 68.019531 202.558594 81.226562 C 202.558594 94.433594 212.070312 105.203125 227 105.203125 C 241.992188 105.203125 251.445312 94.433594 251.445312 81.226562 C 251.445312 68.019531 241.921875 57.253906 226.992188 57.253906 Z M 419.710938 58.109375 L 419.710938 86.445312 C 419.710938 99.195312 427.898438 105.203125 440.050781 105.203125 C 452.273438 105.203125 460.390625 99.195312 460.390625 86.445312 L 460.390625 58.109375 L 447.589844 58.109375 L 447.589844 86.515625 C 447.589844 91.335938 444.753906 94.445312 440.0625 94.445312 C 435.308594 94.445312 432.601562 91.335938 432.601562 86.515625 L 432.601562 58.109375 Z M 484.375 57.253906 C 473.210938 57.253906 466.746094 63.796875 466.746094 71.644531 C 466.746094 89.085938 490.320312 84.652344 490.320312 90.871094 C 490.320312 92.851562 488.277344 94.105469 484.902344 94.105469 C 480.808594 94.105469 475.859375 92.394531 471.695312 90.011719 L 465.6875 99.851562 C 470.179688 102.691406 477.910156 105.203125 484.972656 105.203125 C 497.285156 105.203125 503.488281 98.835938 503.527344 90.75 L 503.527344 90.589844 C 503.457031 73.050781 479.953125 77.582031 479.953125 71.515625 C 479.953125 69.664062 481.804688 68.28125 485.042969 68.28125 C 488.609375 68.28125 492.640625 69.078125 497.125 71.316406 L 501.746094 61.476562 C 495.867188 58.765625 490.320312 57.253906 484.375 57.253906 Z M 484.375 57.253906 " clip-rule="nonzero"/></clipPath><clipPath id="dc91aca5cf"><path d="M 162.042969 11.550781 L 371.929688 11.550781 L 371.929688 40.207031 L 162.042969 40.207031 Z M 162.042969 11.550781 " clip-rule="nonzero"/></clipPath><clipPath id="49403425b8"><path d="M 162.042969 39.730469 L 173.914062 39.730469 C 179.96875 39.730469 183.804688 36.878906 183.804688 31.808594 C 183.804688 28.445312 181.703125 26.351562 178.574219 25.355469 C 181.105469 24.25 182.730469 22.347656 182.730469 19.417969 C 182.730469 15.226562 179.683594 12.019531 173.1875 12.019531 L 162.042969 12.019531 Z M 166.753906 35.773438 L 166.753906 27.539062 L 173.875 27.539062 C 176.960938 27.539062 178.984375 28.921875 178.984375 31.53125 C 178.984375 34.339844 177.003906 35.765625 173.875 35.765625 Z M 166.753906 23.78125 L 166.753906 15.984375 L 172.96875 15.984375 C 176.335938 15.984375 177.917969 17.648438 177.917969 19.789062 C 177.917969 22.039062 176.335938 23.78125 172.96875 23.78125 Z M 188.527344 29.320312 C 188.527344 36.601562 193.398438 40.207031 199.839844 40.207031 C 206.285156 40.207031 211.164062 36.601562 211.164062 29.320312 L 211.164062 12.03125 L 206.414062 12.03125 L 206.414062 29.320312 C 206.414062 33.710938 203.566406 36.082031 199.839844 36.082031 C 196.117188 36.082031 193.308594 33.710938 193.308594 29.320312 L 193.308594 12.03125 L 188.527344 12.03125 Z M 217.140625 39.730469 L 225.6875 39.730469 C 235.777344 39.730469 240.769531 34.539062 240.769531 25.835938 C 240.769531 17.207031 235.429688 12.03125 225.6875 12.03125 L 217.140625 12.03125 Z M 221.851562 35.734375 L 221.851562 16.023438 L 225.96875 16.023438 C 232.382812 16.023438 235.9375 19.816406 235.9375 25.835938 C 235.9375 31.96875 232.570312 35.726562 225.96875 35.726562 Z M 241.765625 39.730469 L 246.902344 39.730469 L 248.964844 33.753906 L 260.636719 33.753906 L 262.738281 39.730469 L 267.851562 39.730469 L 257.589844 12.03125 L 252.011719 12.03125 Z M 254.742188 17.007812 L 254.820312 17.007812 L 259.292969 29.917969 L 250.269531 29.917969 Z M 271.085938 39.730469 L 275.835938 39.730469 L 275.835938 29.199219 L 282.371094 29.199219 C 289.8125 29.199219 292.5 24.730469 292.5 20.574219 C 292.5 16.300781 289.851562 12.03125 282.371094 12.03125 L 271.085938 12.03125 Z M 275.835938 25.328125 L 275.835938 15.984375 L 282.371094 15.984375 C 286.175781 15.984375 287.761719 18.085938 287.761719 20.613281 C 287.761719 23.105469 286.175781 25.328125 282.34375 25.328125 Z M 294.753906 39.730469 L 314.582031 39.730469 L 314.582031 35.535156 L 299.472656 35.535156 L 299.472656 27.578125 L 312.851562 27.578125 L 312.851562 23.703125 L 299.472656 23.703125 L 299.472656 16.222656 L 314.394531 16.222656 L 314.394531 12.03125 L 294.761719 12.03125 Z M 317.789062 37.238281 C 320.441406 38.902344 324.363281 40.207031 328.4375 40.207031 C 335.398438 40.207031 338.847656 36.722656 338.847656 32.167969 C 338.847656 21.402344 323.25 25.636719 323.25 19.417969 C 323.25 17.359375 325.152344 15.734375 328.359375 15.734375 C 331.085938 15.734375 333.707031 16.453125 336.039062 17.597656 L 337.820312 13.792969 C 335.050781 12.457031 331.84375 11.550781 328.207031 11.550781 C 321.992188 11.550781 318.316406 15.078125 318.316406 19.507812 C 318.316406 30.078125 333.914062 25.964844 333.914062 32.21875 C 333.914062 34.429688 332.09375 36.023438 328.457031 36.023438 C 325.410156 36.023438 322.5625 34.996094 320.101562 33.492188 Z M 349.066406 39.730469 L 353.816406 39.730469 L 353.816406 16.261719 L 363.398438 16.261719 L 363.398438 12.03125 L 339.492188 12.03125 L 339.492188 16.261719 L 349.074219 16.261719 Z M 367.152344 39.730469 L 371.902344 39.730469 L 371.902344 12.03125 L 367.152344 12.03125 Z M 367.152344 39.730469 " clip-rule="nonzero"/></clipPath><clipPath id="34e9aa72ec"><path d="M 162.101562 121.792969 L 464.972656 121.792969 L 464.972656 169.742188 L 162.101562 169.742188 Z M 162.101562 121.792969 " clip-rule="nonzero"/></clipPath><clipPath id="f89dc5f58d"><path d="M 162.101562 168.886719 L 197.171875 168.886719 L 197.171875 157.917969 L 174.847656 157.917969 L 174.847656 150.1875 L 194.402344 150.1875 L 194.402344 140.6875 L 174.847656 140.6875 L 174.847656 133.617188 L 196.972656 133.617188 L 196.972656 122.648438 L 162.101562 122.648438 Z M 200.476562 145.695312 C 200.476562 159.503906 210.058594 169.742188 224.980469 169.742188 C 232.4375 169.742188 238.65625 167.492188 243.40625 163.925781 L 243.40625 142.46875 L 222.996094 142.46875 L 222.996094 150.457031 L 231.980469 150.457031 L 231.980469 157.460938 C 230.128906 158.515625 228.085938 159.042969 225.507812 159.042969 C 217.847656 159.042969 213.355469 153.894531 213.355469 145.765625 C 213.355469 138.238281 217.976562 132.488281 225.507812 132.488281 C 229.871094 132.488281 233.304688 134.203125 236.273438 136.453125 L 243.007812 128.195312 C 238.316406 124.5 232.769531 121.792969 225.050781 121.792969 C 209.789062 121.792969 200.476562 132.628906 200.476562 145.695312 M 258.394531 168.886719 L 271.34375 168.886719 L 271.34375 150.457031 L 288.445312 122.648438 L 273.984375 122.648438 L 265 137.710938 L 264.871094 137.710938 L 255.828125 122.648438 L 241.292969 122.648438 L 258.394531 150.457031 Z M 289.371094 168.886719 L 324.441406 168.886719 L 324.441406 157.917969 L 302.121094 157.917969 L 302.121094 150.1875 L 321.675781 150.1875 L 321.675781 140.6875 L 302.121094 140.6875 L 302.121094 133.617188 L 324.242188 133.617188 L 324.242188 122.648438 L 289.371094 122.648438 Z M 342.210938 168.886719 L 354.890625 168.886719 L 354.890625 133.875 L 369.292969 133.875 L 369.292969 122.648438 L 327.808594 122.648438 L 327.808594 133.875 L 342.210938 133.875 Z M 372.460938 168.886719 L 407.53125 168.886719 L 407.53125 157.917969 L 385.210938 157.917969 L 385.210938 150.1875 L 404.761719 150.1875 L 404.761719 140.6875 L 385.210938 140.6875 L 385.210938 133.617188 L 407.34375 133.617188 L 407.34375 122.648438 L 372.460938 122.648438 Z M 415.132812 168.886719 L 427.222656 168.886719 L 427.222656 140.21875 L 440.09375 157.789062 L 452.972656 140.21875 L 452.972656 168.886719 L 464.921875 168.886719 L 464.921875 122.648438 L 452.375 122.648438 L 440.09375 139.820312 L 427.871094 122.648438 L 415.121094 122.648438 Z M 415.132812 168.886719 " clip-rule="nonzero"/></clipPath></defs><g clip-path="url(#bc122a0939)"><path fill="#1d1d1b" d="M 5.164062 173.507812 L 125.15625 173.507812 L 125.15625 187.339844 L 5.164062 187.339844 Z M 5.164062 173.507812 " fill-opacity="1" fill-rule="nonzero"/></g><g clip-path="url(#8218ea8304)"><g clip-path="url(#e76fc32c5e)"><path fill="#1d1d1b" d="M 0.878906 0 L 139.351562 0 L 139.351562 164.4375 L 0.878906 164.4375 Z M 0.878906 0 " fill-opacity="1" fill-rule="nonzero"/></g></g><g clip-path="url(#6bbc9226df)"><g clip-path="url(#ffd5d77e1a)"><path fill="#1d1d1b" d="M 0.878906 0 L 139.351562 0 L 139.351562 164.4375 L 0.878906 164.4375 Z M 0.878906 0 " fill-opacity="1" fill-rule="nonzero"/></g></g><g clip-path="url(#94cbb5ee04)"><g clip-path="url(#5db43cf91a)"><path fill="#1d1d1b" d="M 0.878906 0 L 139.351562 0 L 139.351562 164.4375 L 0.878906 164.4375 Z M 0.878906 0 " fill-opacity="1" fill-rule="nonzero"/></g></g><g clip-path="url(#97fe2b3658)"><g clip-path="url(#24b0e08870)"><path fill="#1d1d1b" d="M 160.21875 57.253906 L 503.550781 57.253906 L 503.550781 105.203125 L 160.21875 105.203125 Z M 160.21875 57.253906 " fill-opacity="1" fill-rule="nonzero"/></g></g><g clip-path="url(#dc91aca5cf)"><g clip-path="url(#49403425b8)"><path fill="#1d1d1b" d="M 162.042969 11.550781 L 371.929688 11.550781 L 371.929688 40.207031 L 162.042969 40.207031 Z M 162.042969 11.550781 " fill-opacity="1" fill-rule="nonzero"/></g></g><g clip-path="url(#34e9aa72ec)"><g clip-path="url(#f89dc5f58d)"><path fill="#1d1d1b" d="M 162.101562 121.792969 L 464.972656 121.792969 L 464.972656 169.742188 L 162.101562 169.742188 Z M 162.101562 121.792969 " fill-opacity="1" fill-rule="nonzero"/></g></g></svg>