<?xml version="1.0" encoding="UTF-8"?>
<svg id="Layer_2" data-name="Layer 2" xmlns="http://www.w3.org/2000/svg" xmlns:xlink="http://www.w3.org/1999/xlink" viewBox="0 0 269.64 149.38">
  <defs>
    <style>
      .cls-1 {
        fill: none;
      }

      .cls-2 {
        clip-path: url(#clippath);
      }

      .cls-3 {
        fill: #fbbc05;
      }

      .cls-4 {
        fill: #ea4335;
      }

      .cls-5 {
        fill: #4285f4;
      }

      .cls-6 {
        fill: #1d1d1b;
      }

      .cls-7 {
        fill: #34a853;
      }

      .cls-8 {
        clip-path: url(#clippath-1);
      }
    </style>
    <clipPath id="clippath">
      <rect class="cls-1" x="212.38" width="52.51" height="63.27"/>
    </clipPath>
    <clipPath id="clippath-1">
      <path class="cls-6" d="M234.74,25.5l11.28,11.28v3.76l-10.14-10.14c-.63-.63-1.14-1.86-1.14-2.75v-2.15ZM232.28,.05c-1.32,.01-2.71,.51-3.57,1.38l-10.77,10.75c-7.35,7.35-7.35,19.27,0,26.62l13.98,13.98-10.36,10.36h5.64l10.24-10.24-3.76-3.76,1.88-1.88,10.59,10.59c.84,.84,2.48,1.52,3.67,1.52h15.02s-15.06-15.06-15.06-15.06v-9.14c0-1.19-.67-2.83-1.52-3.67l-14.08-14.08c-.73-.73-.73-1.93,0-2.66l4.3-4.31h0s13.17-.01,13.17-.01c-.21-1.8-1.57-3.66-3.21-4.32L233.98,.34c-.49-.19-1.04-.29-1.6-.3h-.11Z"/>
    </clipPath>
  </defs>
  <g id="Layer_1-2" data-name="Layer 1">
    <g class="cls-2">
      <g>
        <path class="cls-6" d="M234.74,25.5l11.28,11.28v3.76l-10.14-10.14c-.63-.63-1.14-1.86-1.14-2.75v-2.15ZM232.28,.05c-1.32,.01-2.71,.51-3.57,1.38l-10.77,10.75c-7.35,7.35-7.35,19.27,0,26.62l13.98,13.98-10.36,10.36h5.64l10.24-10.24-3.76-3.76,1.88-1.88,10.59,10.59c.84,.84,2.48,1.52,3.67,1.52h15.02s-15.06-15.06-15.06-15.06v-9.14c0-1.19-.67-2.83-1.52-3.67l-14.08-14.08c-.73-.73-.73-1.93,0-2.66l4.3-4.31h0s13.17-.01,13.17-.01c-.21-1.8-1.57-3.66-3.21-4.32L233.98,.34c-.49-.19-1.04-.29-1.6-.3h-.11Z"/>
        <g class="cls-8">
          <path class="cls-6" d="M210.39-1.99h56.48V65.08h-56.48V-1.99Z"/>
        </g>
      </g>
    </g>
    <path class="cls-4" d="M115.39,107.33c0,12.77-9.99,22.18-22.25,22.18s-22.25-9.41-22.25-22.18,9.99-22.18,22.25-22.18,22.25,9.32,22.25,22.18Zm-9.74,0c0-7.98-5.79-13.44-12.51-13.44s-12.51,5.46-12.51,13.44,5.79,13.44,12.51,13.44,12.51-5.55,12.51-13.44Z"/>
    <path class="cls-3" d="M163.39,107.33c0,12.77-9.99,22.18-22.25,22.18s-22.25-9.41-22.25-22.18,9.99-22.18,22.25-22.18,22.25,9.32,22.25,22.18Zm-9.74,0c0-7.98-5.79-13.44-12.51-13.44s-12.51,5.46-12.51,13.44,5.79,13.44,12.51,13.44,12.51-5.55,12.51-13.44Z"/>
    <path class="cls-5" d="M209.39,86.49v39.82c0,16.38-9.66,23.07-21.08,23.07-10.75,0-17.22-7.19-19.66-13.07l8.48-3.53c1.51,3.61,5.21,7.87,11.17,7.87,7.31,0,11.84-4.51,11.84-13v-3.19h-.34c-2.18,2.69-6.38,5.04-11.68,5.04-11.09,0-21.25-9.66-21.25-22.09s10.16-22.26,21.25-22.26c5.29,0,9.49,2.35,11.68,4.96h.34v-3.61h9.25Zm-8.56,20.91c0-7.81-5.21-13.52-11.84-13.52s-12.35,5.71-12.35,13.52,5.63,13.36,12.35,13.36,11.84-5.63,11.84-13.36Z"/>
    <path class="cls-7" d="M224.64,63.15v65h-9.5V63.15h9.5Z"/>
    <path class="cls-4" d="M261.66,114.63l7.56,5.04c-2.44,3.61-8.32,9.83-18.48,9.83-12.6,0-22.01-9.74-22.01-22.18,0-13.19,9.49-22.18,20.92-22.18s17.14,9.16,18.98,14.11l1.01,2.52-29.65,12.28c2.27,4.45,5.8,6.72,10.75,6.72s8.4-2.44,10.92-6.14h0Zm-23.27-7.98l19.82-8.23c-1.09-2.77-4.37-4.7-8.23-4.7-4.95,0-11.84,4.37-11.59,12.93Z"/>
    <path class="cls-5" d="M34.93,101.56v-9.41h31.71c.31,1.64,.47,3.58,.47,5.68,0,7.06-1.93,15.79-8.15,22.01-6.05,6.3-13.78,9.66-24.02,9.66-18.98,0-34.94-15.46-34.94-34.44S15.96,60.62,34.94,60.62c10.5,0,17.98,4.12,23.6,9.49l-6.64,6.64c-4.03-3.78-9.49-6.72-16.97-6.72-13.86,0-24.7,11.17-24.7,25.03s10.84,25.03,24.7,25.03c8.99,0,14.11-3.61,17.39-6.89,2.66-2.66,4.41-6.46,5.1-11.65h-22.49Z"/>
  </g>
</svg>